<svg id="visual" viewBox="0 0 1800 300" width="1800" height="300" xmlns="http://www.w3.org/2000/svg" xmlns:xlink="http://www.w3.org/1999/xlink" version="1.1"><path d="M0 222L37.5 221.5C75 221 150 220 225 214.5C300 209 375 199 450 196.8C525 194.7 600 200.3 675 200C750 199.7 825 193.3 900 194.8C975 196.3 1050 205.7 1125 210.7C1200 215.7 1275 216.3 1350 214.3C1425 212.3 1500 207.7 1575 202.3C1650 197 1725 191 1762.5 188L1800 185L1800 301L1762.5 301C1725 301 1650 301 1575 301C1500 301 1425 301 1350 301C1275 301 1200 301 1125 301C1050 301 975 301 900 301C825 301 750 301 675 301C600 301 525 301 450 301C375 301 300 301 225 301C150 301 75 301 37.5 301L0 301Z" fill="#8f394d"></path><path d="M0 235L37.5 236.3C75 237.7 150 240.3 225 239.2C300 238 375 233 450 227.2C525 221.3 600 214.7 675 211.7C750 208.7 825 209.3 900 214.3C975 219.3 1050 228.7 1125 234C1200 239.3 1275 240.7 1350 238.2C1425 235.7 1500 229.3 1575 228.3C1650 227.3 1725 231.7 1762.5 233.8L1800 236L1800 301L1762.5 301C1725 301 1650 301 1575 301C1500 301 1425 301 1350 301C1275 301 1200 301 1125 301C1050 301 975 301 900 301C825 301 750 301 675 301C600 301 525 301 450 301C375 301 300 301 225 301C150 301 75 301 37.5 301L0 301Z" fill="#a23555"></path><path d="M0 238L37.5 241.5C75 245 150 252 225 256.5C300 261 375 263 450 260.7C525 258.3 600 251.7 675 248.2C750 244.7 825 244.3 900 243.3C975 242.3 1050 240.7 1125 241C1200 241.3 1275 243.7 1350 244.7C1425 245.7 1500 245.3 1575 244.5C1650 243.7 1725 242.3 1762.5 241.7L1800 241L1800 301L1762.5 301C1725 301 1650 301 1575 301C1500 301 1425 301 1350 301C1275 301 1200 301 1125 301C1050 301 975 301 900 301C825 301 750 301 675 301C600 301 525 301 450 301C375 301 300 301 225 301C150 301 75 301 37.5 301L0 301Z" fill="#b42e5e"></path><path d="M0 262L37.5 261.3C75 260.7 150 259.3 225 259C300 258.7 375 259.3 450 260.8C525 262.3 600 264.7 675 268.5C750 272.3 825 277.7 900 276.3C975 275 1050 267 1125 264.7C1200 262.3 1275 265.7 1350 266C1425 266.3 1500 263.7 1575 265.3C1650 267 1725 273 1762.5 276L1800 279L1800 301L1762.5 301C1725 301 1650 301 1575 301C1500 301 1425 301 1350 301C1275 301 1200 301 1125 301C1050 301 975 301 900 301C825 301 750 301 675 301C600 301 525 301 450 301C375 301 300 301 225 301C150 301 75 301 37.5 301L0 301Z" fill="#c62368"></path></svg>