<svg id="visual" viewBox="0 0 1800 300" width="1800" height="300" xmlns="http://www.w3.org/2000/svg" xmlns:xlink="http://www.w3.org/1999/xlink" version="1.1"><path d="M0 108L37.5 109C75 110 150 112 225 108.7C300 105.3 375 96.7 450 92.5C525 88.3 600 88.7 675 87.8C750 87 825 85 900 85.5C975 86 1050 89 1125 95C1200 101 1275 110 1350 111.5C1425 113 1500 107 1575 101.5C1650 96 1725 91 1762.5 88.5L1800 86L1800 0L1762.5 0C1725 0 1650 0 1575 0C1500 0 1425 0 1350 0C1275 0 1200 0 1125 0C1050 0 975 0 900 0C825 0 750 0 675 0C600 0 525 0 450 0C375 0 300 0 225 0C150 0 75 0 37.5 0L0 0Z" fill="#8f394d"></path><path d="M0 89L37.5 89.5C75 90 150 91 225 87.7C300 84.3 375 76.7 450 72.2C525 67.7 600 66.3 675 67.2C750 68 825 71 900 74.8C975 78.7 1050 83.3 1125 82.5C1200 81.7 1275 75.3 1350 74.7C1425 74 1500 79 1575 82C1650 85 1725 86 1762.5 86.5L1800 87L1800 0L1762.5 0C1725 0 1650 0 1575 0C1500 0 1425 0 1350 0C1275 0 1200 0 1125 0C1050 0 975 0 900 0C825 0 750 0 675 0C600 0 525 0 450 0C375 0 300 0 225 0C150 0 75 0 37.5 0L0 0Z" fill="#a23555"></path><path d="M0 48L37.5 46.7C75 45.3 150 42.7 225 41.5C300 40.3 375 40.7 450 44.5C525 48.3 600 55.7 675 57.2C750 58.7 825 54.3 900 49.7C975 45 1050 40 1125 41C1200 42 1275 49 1350 51.7C1425 54.3 1500 52.7 1575 52C1650 51.3 1725 51.7 1762.5 51.8L1800 52L1800 0L1762.5 0C1725 0 1650 0 1575 0C1500 0 1425 0 1350 0C1275 0 1200 0 1125 0C1050 0 975 0 900 0C825 0 750 0 675 0C600 0 525 0 450 0C375 0 300 0 225 0C150 0 75 0 37.5 0L0 0Z" fill="#b42e5e"></path><path d="M0 35L37.5 32.2C75 29.3 150 23.7 225 23.5C300 23.3 375 28.7 450 28.5C525 28.3 600 22.7 675 23.3C750 24 825 31 900 32.3C975 33.7 1050 29.3 1125 26.7C1200 24 1275 23 1350 25.5C1425 28 1500 34 1575 35C1650 36 1725 32 1762.5 30L1800 28L1800 0L1762.5 0C1725 0 1650 0 1575 0C1500 0 1425 0 1350 0C1275 0 1200 0 1125 0C1050 0 975 0 900 0C825 0 750 0 675 0C600 0 525 0 450 0C375 0 300 0 225 0C150 0 75 0 37.5 0L0 0Z" fill="#c62368"></path></svg>